<svg xmlns="http://www.w3.org/2000/svg" xmlns:xlink="http://www.w3.org/1999/xlink" viewBox="0 0 512 512"><defs><style>.cls192{fill:url(#linear-gradient);}.cls-21{fill:#fff;}</style><linearGradient id="linear-gradient" x1="256" y1="5" x2="256" y2="507" gradientUnits="userSpaceOnUse"><stop offset="0" stop-color="#024299"/><stop offset="0.18" stop-color="#0259ae"/><stop offset="0.74" stop-color="#009ae8"/><stop offset="1" stop-color="#00b3ff"/></linearGradient></defs><g id="Layer_2" data-name="Layer 2"><g id="Layer_1-2" data-name="Layer 1"><rect class="cls192" x="5" y="5" width="502" height="502" rx="46" ry="46"/><path class="cls192" d="M461,10a41,41,0,0,1,41,41V461a41,41,0,0,1-41,41H51a41,41,0,0,1-41-41V51A41,41,0,0,1,51,10H461m0-10H51A51.15,51.15,0,0,0,0,51V461a51.15,51.15,0,0,0,51,51H461a51.15,51.15,0,0,0,51-51V51A51.15,51.15,0,0,0,461,0Z"/><circle class="cls-21" cx="256" cy="256" r="72.5"/><path class="cls-21" d="M256,191a65,65,0,1,1-65,65,65.08,65.08,0,0,1,65-65m0-15a80,80,0,1,0,80,80,80,80,0,0,0-80-80Z"/></g></g></svg>