<svg xmlns="http://www.w3.org/2000/svg" viewBox="0 0 128.55 128.54" aria-hidden="true">
    <defs>
        <style>.icon{fill:none;}.icon__image{fill-rule:evenodd;}</style>
    </defs>
    <g id="Layer_2" data-name="Layer 2">
        <g id="github-icon" className="icon icon__github" data-name="Layer 3">
            <path className="icon__outline pathanimate" d="M8.63,128.54H120c8.59-1,8.59-8.58,8.59-8.58V8.87s.27-7.45-8.5-8.87H9.21C-.43.42,0,9,0,9V119.88s-.43,8,8.58,8.66"/>
            <path className="icon__image pathanimate" d="M50.35,107.14C18.44,95.83,20.24,64.27,20.24,64.27c4-43.6,44-42.95,44-42.95,44,1.51,44,43.35,44,43.35,0,33.5-30.08,42.47-30.08,42.47s-2.74.7-3-2l0-12.69c-.3-5.72-3-7.64-3-7.64,13.12-1,17.09-8.86,17.09-8.86a23.63,23.63,0,0,0,3-12.27,17.36,17.36,0,0,0-4.52-12.42s2.25-4.74-.44-11.65c-4.73-.84-12.1,4.51-12.1,4.51a42.36,42.36,0,0,0-22,0C45,38.54,41.14,39.59,41.14,39.59a16.56,16.56,0,0,0-.43,11.65C36,56,36.18,63.06,36.18,63.06s-.55,9.11,4.44,14.86c5.09,6.31,15.62,6.9,15.62,6.9s-2.11,1.49-2.8,5.89a11.62,11.62,0,0,1-6.59,1,8.69,8.69,0,0,1-5.25-3.25,9.27,9.27,0,0,1-1-1.43,8.73,8.73,0,0,0-6.74-4.54c-2.17,0-2,.81-2,.81s-.13.72,1.93,2a4.82,4.82,0,0,1,1.16.88,14.11,14.11,0,0,1,2.79,3.84s.61,1.29.71,1.58a9.06,9.06,0,0,0,3.25,4.28A11.93,11.93,0,0,0,48.19,98a20.38,20.38,0,0,0,5.11-.5l.06,7.61s0,2.49-3,2"/>
        </g>
    </g>
</svg>