<svg xmlns="http://www.w3.org/2000/svg" viewBox="0 0 512 512" aria-hidden="true">
    <g id="Layer_2" data-name="Layer 2">
        <g id="Layer_1-2" data-name="Layer 1">
            <path d="M256,0C114.62,0,0,114.62,0,256S114.62,512,256,512,512,397.38,512,256,397.38,0,256,0Zm4.42,426C173.48,428.14,87.51,358.91,87.1,254.16c0,1.06.05,2.12.09,3.17C83.75,170.64,156.15,85,258.05,83.27a30,30,0,1,1,2.49,60c-71.5,3-115.15,59-113,112.21,0,.94,0,1.87,0,2.79a2.45,2.45,0,0,1,0-.27c2.39,66.58,56.94,109.36,111.43,108,54.8-1.51,94.27-39.61,106.76-79.53H354.38a30.73,30.73,0,1,1,0-61.45h45.18a31.5,31.5,0,0,1,30.57,23.61,30.61,30.61,0,0,1,.87,5C437.17,333.2,363,422.34,260.42,426Zm29.72-170.22A30.8,30.8,0,1,1,259.35,225,30.79,30.79,0,0,1,290.14,255.78Z"/>
        </g>
    </g>
</svg>