<svg xmlns="http://www.w3.org/2000/svg" viewBox="0 0 496 496"><defs><style>.cls-1{fill:none;}.cls-2{fill:#585c60;}</style></defs><g id="Layer_2" data-name="Layer 2"><g id="Layer_1-2" data-name="Layer 1"><path class="cls-1" d="M248,11.4C117.5,11.4,11.4,117.5,11.4,248S117.6,484.6,248,484.6,484.6,378.5,484.6,248,378.4,11.4,248,11.4ZM35.3,248a212,212,0,0,1,18.4-86.6l101.5,278A212.53,212.53,0,0,1,35.3,248ZM248,460.8a213,213,0,0,1-60.1-8.7l63.8-185.5,65.4,179.2a15.93,15.93,0,0,0,1.5,2.9A211.49,211.49,0,0,1,248,460.8Zm29.5-312.6c12.8-.7,24.3-2,24.3-2,11.4-1.3,10.1-18.2-1.4-17.5,0,0-34.5,2.7-56.7,2.7-20.9,0-56-2.7-56-2.7-11.4-.7-12.8,16.8-1.3,17.5,0,0,10.8,1.3,22.3,2L241.8,239,195.2,378.6,117.7,148.2c12.8-.7,24.3-2,24.3-2,11.4-1.3,10.1-18.2-1.4-17.5,0,0-34.5,2.7-56.7,2.7-4,0-8.7-.1-13.7-.3a212.72,212.72,0,0,1,321.5-40c-1-.1-1.9-.2-2.8-.2-20.9,0-35.7,18.2-35.7,37.8,0,17.5,10.1,32.4,20.9,49.9,8.1,14.2,17.5,32.4,17.5,58.7,0,18.2-7,39.3-16,68.7l-21.2,70.9Zm77.4,283.7,65-187.9c12.2-30.4,16.2-54.6,16.2-76.2a165.74,165.74,0,0,0-1.4-21.9h0a213,213,0,0,1-79.8,286Z"/><path class="cls-2" d="M35.3,248A212.53,212.53,0,0,0,155.2,439.4L53.7,161.4A212,212,0,0,0,35.3,248Z"/><path class="cls-2" d="M251.7,266.6,187.9,452.1a212,212,0,0,0,130.7-3.4,15.93,15.93,0,0,1-1.5-2.9Z"/><path class="cls-2" d="M391.6,237.3c0-26.3-9.4-44.5-17.5-58.7-10.8-17.5-20.9-32.4-20.9-49.9,0-19.6,14.8-37.8,35.7-37.8.9,0,1.8.1,2.8.2a212.72,212.72,0,0,0-321.5,40c5,.2,9.7.3,13.7.3,22.2,0,56.7-2.7,56.7-2.7,11.5-.7,12.8,16.2,1.4,17.5,0,0-11.5,1.3-24.3,2l77.5,230.4L241.8,239l-33.1-90.8c-11.5-.7-22.3-2-22.3-2-11.5-.7-10.1-18.2,1.3-17.5,0,0,35.1,2.7,56,2.7,22.2,0,56.7-2.7,56.7-2.7,11.5-.7,12.8,16.2,1.4,17.5,0,0-11.5,1.3-24.3,2l76.9,228.7L375.6,306C384.6,276.6,391.6,255.5,391.6,237.3Z"/><polygon points="434.7 145.9 434.7 145.9 434.7 145.9 434.7 145.9"/><path class="cls-2" d="M248,0C111.2,0,0,111.2,0,248S111.2,496,248,496,496,384.8,496,248,384.7,0,248,0Zm0,484.6C117.6,484.6,11.4,378.5,11.4,248S117.5,11.4,248,11.4,484.6,117.5,484.6,248,378.5,484.6,248,484.6Z"/><path class="cls-2" d="M434.7,145.9a165.74,165.74,0,0,1,1.4,21.9c0,21.6-4,45.8-16.2,76.2l-65,187.9a213,213,0,0,0,79.8-286Z"/></g></g></svg>