<svg xmlns="http://www.w3.org/2000/svg" aria-label="contentful" viewBox="0 0 20.55 24"><defs><style>.cls-5{fill:#fae501;}.cls-6{fill:#4fb5e1;}.cls-3{fill:#f05751;}.cls-4{fill:#0681b6;}.cls-5{fill:#cd4739;}</style></defs><g id="Layer_2" data-name="Layer 2"><g id="Layer_1-2" data-name="Layer 1"><path class="cls-5" d="M7,16.7A6.74,6.74,0,0,1,5,12,6.65,6.65,0,0,1,6.9,7.3a2.78,2.78,0,0,0,0-3.8,2.54,2.54,0,0,0-3.6,0A12.67,12.67,0,0,0,0,12a12.28,12.28,0,0,0,3.4,8.5,2.53,2.53,0,0,0,3.6,0A3,3,0,0,0,7,16.7Z"/><path class="cls-6" d="M7,7.3a6.13,6.13,0,0,1,4.6-2,6.86,6.86,0,0,1,4.6,1.9,2.38,2.38,0,0,0,3.6,0,2.78,2.78,0,0,0,0-3.8A12.44,12.44,0,0,0,11.5,0,11.65,11.65,0,0,0,3.3,3.5a2.78,2.78,0,0,0,0,3.8A2.87,2.87,0,0,0,7,7.3Z"/><path class="cls-3" d="M16.1,16.7a6.13,6.13,0,0,1-4.6,2,6.51,6.51,0,0,1-4.6-2,2.38,2.38,0,0,0-3.6,0,2.78,2.78,0,0,0,0,3.8A11.65,11.65,0,0,0,11.5,24a11.65,11.65,0,0,0,8.2-3.5,2.78,2.78,0,0,0,0-3.8A2.53,2.53,0,0,0,16.1,16.7Z"/><ellipse class="cls-4" cx="5.1" cy="5.4" rx="2.5" ry="2.6"/><ellipse class="cls-5" cx="5.1" cy="18.6" rx="2.5" ry="2.6"/></g></g></svg>