<svg xmlns="http://www.w3.org/2000/svg" viewBox="0 0 128.55 128.54" aria-hidden="true">
    <defs>
        <style>.cls-1{fill:none;}</style>
    </defs>
    <g id="Layer_2" data-name="Layer 2">
        <g id="projects-icon" className="icon icon__projects" data-name="Layer 5">
            <path className="icon__image pathanimate" d="M15,104.32l13.2-23.55,16.33-15-7.37-7.62,7.58-7.34L37,58l-7.8-7.78,13-12.47L29.1,50.16l-7.55-7.22a.68.68,0,0,1,.08-1l20-19.29a.74.74,0,0,1,.88-.07L65.63,46.15l14.25-13L92.25,46.4,80.11,33l10-8.79a3.89,3.89,0,0,1,4.75.12l7.37,8a3.5,3.5,0,0,1,.47,4.78L78.44,59.21l-12.77-13,36.52,36.92c1.86,1.91,0,3.25,0,3.25l-18,17.5a1.46,1.46,0,0,1-2.44,0l-6.36-6.7L88.28,84.55,75.18,97l-7.6-7.79,7.83-8-8,7.87-7.68-7.89L72.55,68.9,59.67,81.2l-7.44-7.49,8.07-8-8.19,7.81-7.5-7.69L58,53.15,44.6,66,50,71.6l6.87,6.59L40.19,93.71,28.57,81.08,40.13,93.76,15.2,104.53"/>
            <path className="icon__outline pathanimate" d="M8.63,128.54H120c8.59-1,8.59-8.58,8.59-8.58V8.87s.27-7.45-8.5-8.87H9.21C-.43.42,0,9,0,9V119.88s-.43,8,8.58,8.66"/>
        </g>
    </g>
</svg>