<svg xmlns="http://www.w3.org/2000/svg" viewBox="0 0 128.55 128.54">
    <defs>
        <style>.cls-1{fill:none;}</style>
    </defs>
    <g id="Layer_2" data-name="Layer 2">
        <g id="info-icon" className="icon icon__info" data-name="Layer 4">
            <path className="icon__outline pathanimate" d="M8.63,128.54H120c8.59-1,8.59-8.58,8.59-8.58V8.87s.27-7.45-8.5-8.87H9.21C-.43.42,0,9,0,9V119.88s-.43,8,8.58,8.66"/>
            <path className="icon__image1 pathanimate" d="M24.38,99.52c16.81-26,39.89-23,39.89-23s26.15-1,40.11,23c1.23,3.33-3.77,4.75-5.5,2.75C87.21,81.85,64.25,82,64.25,82s-24.2-.42-34.57,20.37c-.16,1.36-6.28,1.94-5.36-2.79"/>
            <path className="icon__image3 pathanimate" d="M64.44,64.29c-20.1,0-20.1-19.64-20.1-19.64S44.07,25.61,64.4,25C85,26,83.67,46.35,83.67,46.35s0,16.86-19.28,17.94"/>
        </g>
    </g>
</svg>