<?xml version="1.0" encoding="utf-8"?>
<!-- Generator: Adobe Illustrator 20.0.0, SVG Export Plug-In . SVG Version: 6.00 Build 0)  -->
<svg version="1.1" id="Layer_1" xmlns="http://www.w3.org/2000/svg" xmlns:xlink="http://www.w3.org/1999/xlink" x="0px" y="0px"
	 viewBox="0 0 1055.5 313.6" style="enable-background:new 0 0 1055.5 313.6;" xml:space="preserve">
<style type="text/css">
	.st0{fill:#FFFFFF;}
</style>
<title>signature</title>
<path class="st0" d="M393.9,185.7l23-9.9c-3.1-8.1-6.5-14-7.6-20.4c-1.4-8.1,4.7-11,11.3-9.8c10.3,1.9,20.4,4.5,30.3,7.8
	c5.4,1.2,8.8,6.6,7.5,11.9c-0.5,2.4-1.9,4.5-3.9,5.9c-3.7,3-8.7,4.6-12.8,7.2c-2.8,1.5-5.1,3.8-6.6,6.5c-7.6,19.7-25.2,30.6-46.1,28
	c-11.4-1.4-25.1-19.7-27-36c-3.5-30.5,17.4-69.7,44.8-84c8.4-4.4,15.3-2.6,20.8,4.9c5,6.9,3.4,19.5-3.5,24.4
	c-12.5,8.7-22.3,19.5-27.4,33.9c-3,8.3-4.5,17.2-6.6,25.8L393.9,185.7z"/>
<path class="st0" d="M540.7,178.7c-8.6-15.2-6.7-29.7-4.7-44.6c2.1-15.8,3-31.7,5.1-47.6c0.8-6.1-1.2-14.9,9.6-14.9
	c8.6,0,18.4,7,18.1,15.2c-0.8,20-2.8,40-4.5,60c-0.7,8.2-2.1,16.3-3.3,25.9c32.1-7.9,58.3-22.1,77.7-47c11.9-15.3,9.5-28.6-6.7-39.7
	c-29.4-20.1-62.1-26.8-97.4-24.2c-6.6,0.5-15.1-0.8-19.8-4.8c-4.6-4.8-6.7-11.5-5.9-18.1c0.5-3,10.1-6.2,15.8-6.5
	c49.7-3,93.7,10.3,129.1,46.8c21.4,22,17.7,61.7-4.2,81.4c-33.6,30.3-73.8,46.3-118.8,48.7C519.7,210,508,199,507,188
	c-0.7-7.3,10.1-13.5,20.8-11.9C532.1,176.7,536.4,177.8,540.7,178.7z"/>
<path class="st0" d="M981.4,206.4c-21.2-13-31.3-31.9-35.1-54.6c-0.6-2.9-1.1-5.9-1.2-8.9c0-6.8,1.2-14.7,8.9-14.9
	c6.4,0.3,12.5,3,16.9,7.7c4.2,4.8,5.3,12.3,7.6,18.6c1.2,4.8,2.8,9.4,4.7,14c6.8,12.9,16.3,13.1,23.6,0.8
	c4.4-7.1,8.4-14.4,11.9-21.9c3.7-8.5,9.6-11.5,18.2-8.9c7.2,2.3,12.9,13.1,9.5,20.6c-8,17.5-15.6,35.7-26.3,51.5
	c-18.5,27.2-39,53.1-59.3,79.1c-6.1,7.2-12.9,13.9-20.1,20c-5.4,4.9-12.7,5.9-17.1,0.4c-2.6-4.6-2.8-10.1-0.6-14.9
	c14.1-22.4,29.3-44.2,44.1-66.2C971.4,221.9,975.9,214.8,981.4,206.4z"/>
<path class="st0" d="M700,89.6c-1.6,2.1-3.6,7.5-5.9,7.7c-4.2,0.4-11.2-1.3-12.6-4.2c-5.5-11.4-9.8-23.4-12.8-35.7
	c-2.1-8.9,5.1-13.3,13.7-8.9C698.2,56.9,697.5,72.9,700,89.6z"/>
<path class="st0" d="M928.1,195.5c-21.2-4.3-24.8-14.9-11.4-31.7c1.6-2.1,3.8-3.8,5.4-5.9c3.6-4.8,8-9.3,10.1-14.9
	c3.8-9.8-2.3-17.4-9.3-22.5c-7-5.1-13-0.6-18.7,5.2c-12.6,12.8-24.6,25.7-27.1,45.2l-23-5.7c13-27.8,11.1-41.6-7.1-61.6
	c-7.6-8.3-18.1-12.7-27.4-8.7c-7,3-11.4,12.7-16.1,20c-2.6,4-2.1,10.1-5,13.7c-7.7,9.5-7,19.2-3.8,29.7c1.3,5.9,2.2,11.8,2.7,17.8
	c-6.2-5.6-12.3-8.9-15.4-14.3c-6.2-10.4-11.5-21.4-15.7-32.7c-4.5-12.1-7.2-24.8,0.7-37.2c1.8-3.3,3.1-7,3.7-10.7
	c2.1-8.9-3.7-21-11.5-23.8c-10.4-3.3-14.3,3.9-17.7,11.6c-2.3,5.1-3.9,10.6-6.2,15.7c-5.9,13.4-10.9,27.3-18.2,39.8
	c-11.6,19.8-24.9,38.7-37.3,58.1c-5.2,8.2-0.6,21.9,8.3,26.5c8.2,4.3,14.6,0.7,19.4-10.6c3-6.9,6.3-13.7,9.2-19.7
	c6.4,0.4,11.7,0.9,16.9,1c5.7,0.2,11.5-0.3,17,0c12.8,0.4,17.2,1.5,23.8,8.9c3.5,3.9,8.9,8.1,13.7,8.4c4,0.3,8.5-4.8,12.8-7.6
	c4.5,7.9,8,19.3,20.1,14.9c4.8-1.7,7.3-10.1,11.9-17c12.7,9.2,28.9,11.5,45.9,11.6c3.9,0.6,7.4,2.8,9.7,5.9
	c8.1,11.2,20.6,18.4,34.4,19.7c10,1,19.2-5.3,20.5-13.9C944.9,199,937.1,197.2,928.1,195.5z M730.4,152.8c3-5.1,11.1-20.5,13.9-25.5
	c1,5.6,2.5,11,4.4,16.3c3,8.9,3.2,8.6,5.9,16.4C744.9,154.7,731.8,153.8,730.4,152.8z M826.9,142l-4.4-3c2.8-5.1,5.7-10.1,8.5-15.2
	l6.6,5.2C834.1,133.3,830.5,137.7,826.9,142z"/>
<path class="st0" d="M354.9,124.3c-0.6-9.1-7.6-16.5-16.7-17.5c-10-1.2-9.9,8.5-11.6,15.2c-0.7,3.7-1.2,7.5-1.3,11.3
	c-1.1,11.9-2.2,23.6-3.3,35.9c-10.8-5.5-13-13.2-12.7-23.3c0.7-12-0.3-24-3.2-35.7c-2-6.8-9.3-13.5-16-17
	c-6.6-3.5-11.4,2.6-13.4,9.6c-0.3,1.2-3.3,1.5-4.7,2.6c-3.6,2.8-8.5,5.1-10.4,8.9c-10.9,21.4-21,43.2-31.4,65.1l-27.9-16.1
	c6.3-3.8,11.7-6.7,16.6-10.1c18.7-12.9,25.5-32.4,17-47.6C229,92.6,217.2,82.9,203,79c-12.6-3.5-25.2-6.9-37.6-10.3
	c2.1-9.2,4.6-18.3,6.1-27.5c4-23-13.5-43.5-38.6-37.5c-12.7,3.3-24.7,8.6-35.7,15.7C61.6,40.7,32.2,71.1,12,107.5
	c-9.9,18.1-16.5,37.9-8,57.8c11.4,26.2,32.9,41.1,61.8,40.6c18.9-0.3,37.7-4.8,57.2-7.4c1.9,2.7,4.3,7.9,8.2,10.9
	c4,3.1,10.4,6.7,14.3,5.5c3.9-1.2,6.6-8,8.3-12.8c2.3-8.3,4.3-16.7,5.7-25.1c22.1,11.1,41.8,20.5,61.1,30.7
	c7.1,3.7,13.2,13.8,20.5,0.5c0.4-0.7,2.1-0.9,3.1-0.8c10.9,1.5,13.3-5.9,15.6-14.1c1.7-5.1,3.7-10,5.9-14.9
	c13.2,5.9,27.2,7.1,33.9,21.7c3.2,6.9,10.8,9.2,18.3,4.8c4.4-8.2-8.9-18.8,3.7-25.6c2.4,5.4,3.7,11.5,7.4,15.3c3.6,3.9,9.5,7,14,6.6
	c2.7-0.3,5.9-7.8,6.8-12.5c2.2-11.2,3.8-22.4,4.6-33.8C355.4,144.7,355.6,134.5,354.9,124.3z M110.7,115.4
	c8.9,10.4,8.9,10.4,28.8-0.6c0.4,2.2,0.5,4.4,0.3,6.5c-3.4,13.8-6.4,28-10.8,41.4c-2,4.3-5.8,7.6-10.4,8.9
	c-10.2,2.2-20.5,3.8-30.9,4.9c-16.9,2.4-33.8,5.1-49.6-5c-6.2-4-10-9.1-7.7-16c4.5-13.4,8.3-27.6,15.6-39.5
	c20.2-33.7,49.4-61.2,84.3-79.2c7.9-4.1,17.4-5.4,27.1-6.5C150.4,64.1,121.1,83.9,110.7,115.4L110.7,115.4z M154.4,108.6
	c10.9-11.8,40.3-9.5,62.6,6.1l-46.1,25.1C169.3,124.9,168.3,112.8,154.4,108.6L154.4,108.6z M273,155c4.3-11.5,6.5-18.7,9.7-23.3
	c1.7-2.5,3,5.9,4.8,28.2L273,155z"/>
</svg>
