<svg xmlns="http://www.w3.org/2000/svg" viewBox="0 0 88.02 85.9"><g id="Layer_2" data-name="Layer 2"><g id="Layer_1-2" data-name="Layer 1"><path d="M30.13,85.82C-1.78,74.51,0,43,0,43,4-.65,44,0,44,0,88,1.51,88,43.35,88,43.35c0,33.5-30.08,42.47-30.08,42.47s-2.74.7-3-2V71.13c-.3-5.72-3-7.64-3-7.64C65.06,62.49,69,54.63,69,54.63a23.68,23.68,0,0,0,3-12.27,17.39,17.39,0,0,0-4.52-12.42s2.25-4.74-.44-11.65C62.34,17.45,55,22.8,55,22.8a42.31,42.31,0,0,0-22,0c-8.19-5.58-12-4.53-12-4.53a16.58,16.58,0,0,0-.43,11.65C15.78,34.68,16,41.74,16,41.74s-.55,9.11,4.44,14.86C25.49,62.91,36,63.5,36,63.5s-2.11,1.49-2.8,5.89a11.59,11.59,0,0,1-6.59,1,8.66,8.66,0,0,1-5.25-3.25,8.93,8.93,0,0,1-1-1.43,8.72,8.72,0,0,0-6.74-4.54c-2.17,0-2,.81-2,.81s-.13.72,1.93,2a4.74,4.74,0,0,1,1.16.88,14.11,14.11,0,0,1,2.79,3.84s.61,1.29.71,1.58a9,9,0,0,0,3.25,4.28A12,12,0,0,0,28,76.68a20.43,20.43,0,0,0,5.11-.5l.06,7.61s0,2.49-3,2"/></g></g></svg>